<svg width="26" height="26" viewBox="0 0 26 26" fill="none" xmlns="http://www.w3.org/2000/svg">
<path d="M23.2 12.8C23.2 7.055 18.545 2.4 12.8 2.4C7.055 2.4 2.4 7.055 2.4 12.8C2.4 18.545 7.055 23.2 12.8 23.2C18.545 23.2 23.2 18.545 23.2 12.8ZM0 12.8C0 5.73 5.73 0 12.8 0C19.87 0 25.6 5.73 25.6 12.8C25.6 19.87 19.87 25.6 12.8 25.6C5.73 25.6 0 19.87 0 12.8ZM8.865 15.97C9.615 16.75 10.92 17.6 12.8 17.6C14.68 17.6 15.985 16.75 16.735 15.97C17.195 15.49 17.955 15.475 18.43 15.935C18.905 16.395 18.925 17.155 18.465 17.63C17.36 18.78 15.465 20 12.8 20C10.135 20 8.24 18.78 7.135 17.63C6.675 17.15 6.69 16.39 7.17 15.935C7.65 15.48 8.41 15.49 8.865 15.97ZM7.2 10.4C7.2 9.515 7.915 8.8 8.8 8.8C9.685 8.8 10.4 9.515 10.4 10.4C10.4 11.285 9.685 12 8.8 12C7.915 12 7.2 11.285 7.2 10.4ZM16.8 8.8C17.685 8.8 18.4 9.515 18.4 10.4C18.4 11.285 17.685 12 16.8 12C15.915 12 15.2 11.285 15.2 10.4C15.2 9.515 15.915 8.8 16.8 8.8Z" fill="#34353D"/>
</svg>
