<svg width="26" height="26" viewBox="0 0 26 26" fill="none" xmlns="http://www.w3.org/2000/svg">
<path d="M20 20.305V14.4C20 13.735 19.465 13.2 18.8 13.2C18.135 13.2 17.6 13.735 17.6 14.4V22.03C16.165 22.78 14.53 23.2 12.8 23.2C11.07 23.2 9.435 22.775 8 22.03V14.4C8 13.735 7.465 13.2 6.8 13.2C6.135 13.2 5.6 13.735 5.6 14.4V20.305C3.63 18.41 2.4 15.75 2.4 12.8C2.4 7.055 7.055 2.4 12.8 2.4C18.545 2.4 23.2 7.055 23.2 12.8C23.2 15.75 21.97 18.41 20 20.305ZM12.8 25.6C19.87 25.6 25.6 19.87 25.6 12.8C25.6 5.73 19.87 0 12.8 0C5.73 0 0 5.73 0 12.8C0 19.87 5.73 25.6 12.8 25.6ZM7.6 9.8H8.4C8.95 9.8 9.4 10.25 9.4 10.8C9.4 11.35 9.85 11.8 10.4 11.8C10.95 11.8 11.4 11.35 11.4 10.8C11.4 9.145 10.055 7.8 8.4 7.8H7.6C5.945 7.8 4.6 9.145 4.6 10.8C4.6 11.35 5.05 11.8 5.6 11.8C6.15 11.8 6.6 11.35 6.6 10.8C6.6 10.25 7.05 9.8 7.6 9.8ZM16.2 10.8C16.2 10.25 16.65 9.8 17.2 9.8H18C18.55 9.8 19 10.25 19 10.8C19 11.35 19.45 11.8 20 11.8C20.55 11.8 21 11.35 21 10.8C21 9.145 19.655 7.8 18 7.8H17.2C15.545 7.8 14.2 9.145 14.2 10.8C14.2 11.35 14.65 11.8 15.2 11.8C15.75 11.8 16.2 11.35 16.2 10.8ZM10.4 16.8V18.4C10.4 19.725 11.475 20.8 12.8 20.8C14.125 20.8 15.2 19.725 15.2 18.4V16.8C15.2 15.475 14.125 14.4 12.8 14.4C11.475 14.4 10.4 15.475 10.4 16.8Z" fill="#34353D"/>
</svg>
