<svg width="26" height="26" viewBox="0 0 26 26" fill="none" xmlns="http://www.w3.org/2000/svg">
<path d="M23.2 12.8C23.2 18.545 18.545 23.2 12.8 23.2C7.055 23.2 2.4 18.545 2.4 12.8C2.4 7.055 7.055 2.4 12.8 2.4C18.545 2.4 23.2 7.055 23.2 12.8ZM12.8 0C5.73 0 0 5.73 0 12.8C0 19.87 5.73 25.6 12.8 25.6C19.87 25.6 25.6 19.87 25.6 12.8C25.6 5.73 19.87 0 12.8 0ZM8.8 12C9.685 12 10.4 11.285 10.4 10.4C10.4 9.515 9.685 8.8 8.8 8.8C7.915 8.8 7.2 9.515 7.2 10.4C7.2 11.285 7.915 12 8.8 12ZM18.4 10.4C18.4 9.515 17.685 8.8 16.8 8.8C15.915 8.8 15.2 9.515 15.2 10.4C15.2 11.285 15.915 12 16.8 12C17.685 12 18.4 11.285 18.4 10.4ZM9.2 16C8.535 16 8 16.535 8 17.2C8 17.865 8.535 18.4 9.2 18.4H16.4C17.065 18.4 17.6 17.865 17.6 17.2C17.6 16.535 17.065 16 16.4 16H9.2Z" fill="#34353D"/>
</svg>
