<svg width="26" height="26" viewBox="0 0 26 26" fill="none" xmlns="http://www.w3.org/2000/svg">
<path d="M23.2 12.8C23.2 7.055 18.545 2.4 12.8 2.4C7.055 2.4 2.4 7.055 2.4 12.8C2.4 18.545 7.055 23.2 12.8 23.2C18.545 23.2 23.2 18.545 23.2 12.8ZM0 12.8C0 5.73 5.73 0 12.8 0C19.87 0 25.6 5.73 25.6 12.8C25.6 19.87 19.87 25.6 12.8 25.6C5.73 25.6 0 19.87 0 12.8ZM5.915 15.71C5.705 15.025 6.27 14.4 6.985 14.4H18.615C19.33 14.4 19.895 15.025 19.685 15.71C18.785 18.655 16.04 20.8 12.8 20.8C9.56 20.8 6.815 18.655 5.915 15.71ZM8.8 9C8.025 9 7.4 9.625 7.4 10.4V10.8C7.4 11.35 6.95 11.8 6.4 11.8C5.85 11.8 5.4 11.35 5.4 10.8V10.4C5.4 8.52 6.92 7 8.8 7C10.68 7 12.2 8.52 12.2 10.4V10.8C12.2 11.35 11.75 11.8 11.2 11.8C10.65 11.8 10.2 11.35 10.2 10.8V10.4C10.2 9.625 9.575 9 8.8 9ZM15.4 10.4V10.8C15.4 11.35 14.95 11.8 14.4 11.8C13.85 11.8 13.4 11.35 13.4 10.8V10.4C13.4 8.52 14.92 7 16.8 7C18.68 7 20.2 8.52 20.2 10.4V10.8C20.2 11.35 19.75 11.8 19.2 11.8C18.65 11.8 18.2 11.35 18.2 10.8V10.4C18.2 9.625 17.575 9 16.8 9C16.025 9 15.4 9.625 15.4 10.4Z" fill="#34353D"/>
</svg>
