<svg width="26" height="26" viewBox="0 0 26 26" fill="none" xmlns="http://www.w3.org/2000/svg">
<path d="M23.2 12.8C23.2 7.055 18.545 2.4 12.8 2.4C7.055 2.4 2.4 7.055 2.4 12.8C2.4 18.545 7.055 23.2 12.8 23.2C18.545 23.2 23.2 18.545 23.2 12.8ZM0 12.8C0 5.73 5.73 0 12.8 0C19.87 0 25.6 5.73 25.6 12.8C25.6 19.87 19.87 25.6 12.8 25.6C5.73 25.6 0 19.87 0 12.8ZM16.735 19.23C15.985 18.45 14.68 17.6 12.8 17.6C10.92 17.6 9.615 18.45 8.865 19.23C8.405 19.71 7.645 19.725 7.17 19.265C6.695 18.805 6.675 18.045 7.135 17.57C8.24 16.42 10.135 15.2 12.8 15.2C15.465 15.2 17.36 16.42 18.465 17.57C18.925 18.05 18.91 18.81 18.43 19.265C17.95 19.72 17.19 19.71 16.735 19.23ZM7.2 10.4C7.2 9.515 7.915 8.8 8.8 8.8C9.685 8.8 10.4 9.515 10.4 10.4C10.4 11.285 9.685 12 8.8 12C7.915 12 7.2 11.285 7.2 10.4ZM16.8 8.8C17.685 8.8 18.4 9.515 18.4 10.4C18.4 11.285 17.685 12 16.8 12C15.915 12 15.2 11.285 15.2 10.4C15.2 9.515 15.915 8.8 16.8 8.8Z" fill="#34353D"/>
</svg>
