<?xml version="1.0" encoding="UTF-8" standalone="no"?><!DOCTYPE svg PUBLIC "-//W3C//DTD SVG 1.1//EN" "http://www.w3.org/Graphics/SVG/1.1/DTD/svg11.dtd"><svg width="100%" height="100%" viewBox="0 0 640 640" version="1.1" xmlns="http://www.w3.org/2000/svg" xmlns:xlink="http://www.w3.org/1999/xlink" xml:space="preserve" xmlns:serif="http://www.serif.com/" style="fill-rule:evenodd;clip-rule:evenodd;stroke-linejoin:round;stroke-miterlimit:2;"><path d="M96,128c0,-17.7 14.3,-32 32,-32l352,0c70.7,0 128,57.3 128,128c0,70.7 -57.3,128 -128,128c0,53 -43,96 -96,96l-192,0c-53,0 -96,-43 -96,-96l0,-224Zm448,96c0,-35.3 -28.7,-64 -64,-64l0,128c35.3,0 64,-28.7 64,-64Zm-448,288l384,0c17.7,0 32,14.3 32,32c0,17.7 -14.3,32 -32,32l-384,0c-17.7,0 -32,-14.3 -32,-32c0,-17.7 14.3,-32 32,-32Z" style="fill:#fff;fill-rule:nonzero;"/></svg>